<mxfile host="Electron" modified="2024-06-01T15:43:36.350Z" agent="Mozilla/5.0 (Macintosh; Intel Mac OS X 10_15_7) AppleWebKit/537.36 (KHTML, like Gecko) draw.io/24.2.5 Chrome/120.0.6099.109 Electron/28.1.0 Safari/537.36" etag="ZuC2Lz4Z3YKVkb2FpUeu" version="24.2.5" type="device">
  <diagram name="Page-1" id="Vf3PKF9UIHDqAyMywGLC">
    <mxGraphModel dx="1995" dy="956" grid="0" gridSize="10" guides="1" tooltips="1" connect="1" arrows="1" fold="1" page="0" pageScale="1" pageWidth="827" pageHeight="1169" math="0" shadow="0">
      <root>
        <mxCell id="0" />
        <mxCell id="1" parent="0" />
        <mxCell id="7AeCfvl3hj4L9ZotNmNF-1" value="" style="rounded=0;whiteSpace=wrap;html=1;" vertex="1" parent="1">
          <mxGeometry x="63" y="191.5" width="142" height="156.5" as="geometry" />
        </mxCell>
        <mxCell id="7AeCfvl3hj4L9ZotNmNF-2" style="rounded=0;orthogonalLoop=1;jettySize=auto;html=1;entryX=0.5;entryY=0;entryDx=0;entryDy=0;endArrow=none;endFill=0;" edge="1" parent="1" source="7AeCfvl3hj4L9ZotNmNF-4" target="7AeCfvl3hj4L9ZotNmNF-7">
          <mxGeometry relative="1" as="geometry" />
        </mxCell>
        <mxCell id="7AeCfvl3hj4L9ZotNmNF-3" style="edgeStyle=none;rounded=0;orthogonalLoop=1;jettySize=auto;html=1;entryX=0;entryY=0.5;entryDx=0;entryDy=0;endArrow=none;endFill=0;" edge="1" parent="1" source="7AeCfvl3hj4L9ZotNmNF-4" target="7AeCfvl3hj4L9ZotNmNF-11">
          <mxGeometry relative="1" as="geometry" />
        </mxCell>
        <mxCell id="7AeCfvl3hj4L9ZotNmNF-4" value="" style="ellipse;whiteSpace=wrap;html=1;aspect=fixed;fillColor=#FF0000;" vertex="1" parent="1">
          <mxGeometry x="93" y="212" width="21" height="21" as="geometry" />
        </mxCell>
        <mxCell id="7AeCfvl3hj4L9ZotNmNF-5" style="edgeStyle=none;rounded=0;orthogonalLoop=1;jettySize=auto;html=1;entryX=0;entryY=1;entryDx=0;entryDy=0;endArrow=none;endFill=0;" edge="1" parent="1" source="7AeCfvl3hj4L9ZotNmNF-7" target="7AeCfvl3hj4L9ZotNmNF-10">
          <mxGeometry relative="1" as="geometry" />
        </mxCell>
        <mxCell id="7AeCfvl3hj4L9ZotNmNF-6" style="edgeStyle=none;rounded=0;orthogonalLoop=1;jettySize=auto;html=1;entryX=0;entryY=0;entryDx=0;entryDy=0;endArrow=none;endFill=0;" edge="1" parent="1" source="7AeCfvl3hj4L9ZotNmNF-7" target="7AeCfvl3hj4L9ZotNmNF-13">
          <mxGeometry relative="1" as="geometry" />
        </mxCell>
        <mxCell id="7AeCfvl3hj4L9ZotNmNF-7" value="" style="ellipse;whiteSpace=wrap;html=1;aspect=fixed;fillColor=#E6D0DE;" vertex="1" parent="1">
          <mxGeometry x="87" y="248" width="21" height="21" as="geometry" />
        </mxCell>
        <mxCell id="7AeCfvl3hj4L9ZotNmNF-8" style="edgeStyle=none;rounded=0;orthogonalLoop=1;jettySize=auto;html=1;entryX=0.5;entryY=0;entryDx=0;entryDy=0;endArrow=none;endFill=0;" edge="1" parent="1" source="7AeCfvl3hj4L9ZotNmNF-10" target="7AeCfvl3hj4L9ZotNmNF-13">
          <mxGeometry relative="1" as="geometry" />
        </mxCell>
        <mxCell id="7AeCfvl3hj4L9ZotNmNF-9" style="edgeStyle=none;rounded=0;orthogonalLoop=1;jettySize=auto;html=1;entryX=0;entryY=0;entryDx=0;entryDy=0;endArrow=none;endFill=0;" edge="1" parent="1" source="7AeCfvl3hj4L9ZotNmNF-10" target="7AeCfvl3hj4L9ZotNmNF-11">
          <mxGeometry relative="1" as="geometry" />
        </mxCell>
        <mxCell id="7AeCfvl3hj4L9ZotNmNF-10" value="" style="ellipse;whiteSpace=wrap;html=1;aspect=fixed;fillColor=#E6D0DE;" vertex="1" parent="1">
          <mxGeometry x="135" y="223" width="21" height="21" as="geometry" />
        </mxCell>
        <mxCell id="7AeCfvl3hj4L9ZotNmNF-11" value="" style="ellipse;whiteSpace=wrap;html=1;aspect=fixed;fillColor=#E6D0DE;" vertex="1" parent="1">
          <mxGeometry x="166" y="269" width="21" height="21" as="geometry" />
        </mxCell>
        <mxCell id="7AeCfvl3hj4L9ZotNmNF-12" style="edgeStyle=none;rounded=0;orthogonalLoop=1;jettySize=auto;html=1;entryX=0;entryY=1;entryDx=0;entryDy=0;endArrow=none;endFill=0;" edge="1" parent="1" source="7AeCfvl3hj4L9ZotNmNF-13" target="7AeCfvl3hj4L9ZotNmNF-11">
          <mxGeometry relative="1" as="geometry" />
        </mxCell>
        <mxCell id="7AeCfvl3hj4L9ZotNmNF-13" value="" style="ellipse;whiteSpace=wrap;html=1;aspect=fixed;fillColor=#E6D0DE;" vertex="1" parent="1">
          <mxGeometry x="114" y="292" width="21" height="21" as="geometry" />
        </mxCell>
        <mxCell id="7AeCfvl3hj4L9ZotNmNF-14" value="&lt;font&gt;&lt;b style=&quot;font-size: 15px;&quot;&gt;Platform  1&lt;/b&gt;&lt;/font&gt;" style="text;html=1;strokeColor=none;fillColor=none;align=center;verticalAlign=middle;whiteSpace=wrap;rounded=0;" vertex="1" parent="1">
          <mxGeometry x="68.5" y="320" width="131" height="20" as="geometry" />
        </mxCell>
        <mxCell id="7AeCfvl3hj4L9ZotNmNF-15" value="" style="rounded=0;whiteSpace=wrap;html=1;" vertex="1" parent="1">
          <mxGeometry x="287" y="191.5" width="142" height="156.5" as="geometry" />
        </mxCell>
        <mxCell id="7AeCfvl3hj4L9ZotNmNF-16" style="rounded=0;orthogonalLoop=1;jettySize=auto;html=1;entryX=0.5;entryY=0;entryDx=0;entryDy=0;endArrow=none;endFill=0;" edge="1" parent="1" source="7AeCfvl3hj4L9ZotNmNF-18" target="7AeCfvl3hj4L9ZotNmNF-21">
          <mxGeometry relative="1" as="geometry" />
        </mxCell>
        <mxCell id="7AeCfvl3hj4L9ZotNmNF-17" style="edgeStyle=none;rounded=0;orthogonalLoop=1;jettySize=auto;html=1;entryX=0;entryY=0.5;entryDx=0;entryDy=0;endArrow=none;endFill=0;" edge="1" parent="1" source="7AeCfvl3hj4L9ZotNmNF-18" target="7AeCfvl3hj4L9ZotNmNF-25">
          <mxGeometry relative="1" as="geometry" />
        </mxCell>
        <mxCell id="7AeCfvl3hj4L9ZotNmNF-18" value="" style="ellipse;whiteSpace=wrap;html=1;aspect=fixed;fillColor=#FF0000;" vertex="1" parent="1">
          <mxGeometry x="317" y="212" width="21" height="21" as="geometry" />
        </mxCell>
        <mxCell id="7AeCfvl3hj4L9ZotNmNF-19" style="edgeStyle=none;rounded=0;orthogonalLoop=1;jettySize=auto;html=1;entryX=0;entryY=1;entryDx=0;entryDy=0;endArrow=none;endFill=0;" edge="1" parent="1" source="7AeCfvl3hj4L9ZotNmNF-21" target="7AeCfvl3hj4L9ZotNmNF-24">
          <mxGeometry relative="1" as="geometry" />
        </mxCell>
        <mxCell id="7AeCfvl3hj4L9ZotNmNF-20" style="edgeStyle=none;rounded=0;orthogonalLoop=1;jettySize=auto;html=1;entryX=0;entryY=0;entryDx=0;entryDy=0;endArrow=none;endFill=0;" edge="1" parent="1" source="7AeCfvl3hj4L9ZotNmNF-21" target="7AeCfvl3hj4L9ZotNmNF-27">
          <mxGeometry relative="1" as="geometry" />
        </mxCell>
        <mxCell id="7AeCfvl3hj4L9ZotNmNF-21" value="" style="ellipse;whiteSpace=wrap;html=1;aspect=fixed;fillColor=#E6D0DE;" vertex="1" parent="1">
          <mxGeometry x="311" y="248" width="21" height="21" as="geometry" />
        </mxCell>
        <mxCell id="7AeCfvl3hj4L9ZotNmNF-22" style="edgeStyle=none;rounded=0;orthogonalLoop=1;jettySize=auto;html=1;entryX=0.5;entryY=0;entryDx=0;entryDy=0;endArrow=none;endFill=0;" edge="1" parent="1" source="7AeCfvl3hj4L9ZotNmNF-24" target="7AeCfvl3hj4L9ZotNmNF-27">
          <mxGeometry relative="1" as="geometry" />
        </mxCell>
        <mxCell id="7AeCfvl3hj4L9ZotNmNF-23" style="edgeStyle=none;rounded=0;orthogonalLoop=1;jettySize=auto;html=1;entryX=0;entryY=0;entryDx=0;entryDy=0;endArrow=none;endFill=0;" edge="1" parent="1" source="7AeCfvl3hj4L9ZotNmNF-24" target="7AeCfvl3hj4L9ZotNmNF-25">
          <mxGeometry relative="1" as="geometry" />
        </mxCell>
        <mxCell id="7AeCfvl3hj4L9ZotNmNF-24" value="" style="ellipse;whiteSpace=wrap;html=1;aspect=fixed;fillColor=#E6D0DE;" vertex="1" parent="1">
          <mxGeometry x="359" y="223" width="21" height="21" as="geometry" />
        </mxCell>
        <mxCell id="7AeCfvl3hj4L9ZotNmNF-25" value="" style="ellipse;whiteSpace=wrap;html=1;aspect=fixed;fillColor=#E6D0DE;" vertex="1" parent="1">
          <mxGeometry x="390" y="269" width="21" height="21" as="geometry" />
        </mxCell>
        <mxCell id="7AeCfvl3hj4L9ZotNmNF-26" style="edgeStyle=none;rounded=0;orthogonalLoop=1;jettySize=auto;html=1;entryX=0;entryY=1;entryDx=0;entryDy=0;endArrow=none;endFill=0;" edge="1" parent="1" source="7AeCfvl3hj4L9ZotNmNF-27" target="7AeCfvl3hj4L9ZotNmNF-25">
          <mxGeometry relative="1" as="geometry" />
        </mxCell>
        <mxCell id="7AeCfvl3hj4L9ZotNmNF-27" value="" style="ellipse;whiteSpace=wrap;html=1;aspect=fixed;fillColor=#E6D0DE;" vertex="1" parent="1">
          <mxGeometry x="338" y="292" width="21" height="21" as="geometry" />
        </mxCell>
        <mxCell id="7AeCfvl3hj4L9ZotNmNF-28" value="&lt;font&gt;&lt;b style=&quot;font-size: 15px;&quot;&gt;Platform  2&lt;/b&gt;&lt;/font&gt;" style="text;html=1;strokeColor=none;fillColor=none;align=center;verticalAlign=middle;whiteSpace=wrap;rounded=0;" vertex="1" parent="1">
          <mxGeometry x="292.5" y="320" width="131" height="20" as="geometry" />
        </mxCell>
        <mxCell id="7AeCfvl3hj4L9ZotNmNF-29" value="" style="rounded=0;whiteSpace=wrap;html=1;" vertex="1" parent="1">
          <mxGeometry x="526" y="191.5" width="142" height="156.5" as="geometry" />
        </mxCell>
        <mxCell id="7AeCfvl3hj4L9ZotNmNF-30" style="rounded=0;orthogonalLoop=1;jettySize=auto;html=1;entryX=0.5;entryY=0;entryDx=0;entryDy=0;endArrow=none;endFill=0;" edge="1" parent="1" source="7AeCfvl3hj4L9ZotNmNF-32" target="7AeCfvl3hj4L9ZotNmNF-35">
          <mxGeometry relative="1" as="geometry" />
        </mxCell>
        <mxCell id="7AeCfvl3hj4L9ZotNmNF-31" style="edgeStyle=none;rounded=0;orthogonalLoop=1;jettySize=auto;html=1;entryX=0;entryY=0.5;entryDx=0;entryDy=0;endArrow=none;endFill=0;" edge="1" parent="1" source="7AeCfvl3hj4L9ZotNmNF-32" target="7AeCfvl3hj4L9ZotNmNF-39">
          <mxGeometry relative="1" as="geometry" />
        </mxCell>
        <mxCell id="7AeCfvl3hj4L9ZotNmNF-32" value="" style="ellipse;whiteSpace=wrap;html=1;aspect=fixed;fillColor=#FF0000;" vertex="1" parent="1">
          <mxGeometry x="556" y="212" width="21" height="21" as="geometry" />
        </mxCell>
        <mxCell id="7AeCfvl3hj4L9ZotNmNF-33" style="edgeStyle=none;rounded=0;orthogonalLoop=1;jettySize=auto;html=1;entryX=0;entryY=1;entryDx=0;entryDy=0;endArrow=none;endFill=0;" edge="1" parent="1" source="7AeCfvl3hj4L9ZotNmNF-35" target="7AeCfvl3hj4L9ZotNmNF-38">
          <mxGeometry relative="1" as="geometry" />
        </mxCell>
        <mxCell id="7AeCfvl3hj4L9ZotNmNF-34" style="edgeStyle=none;rounded=0;orthogonalLoop=1;jettySize=auto;html=1;entryX=0;entryY=0;entryDx=0;entryDy=0;endArrow=none;endFill=0;" edge="1" parent="1" source="7AeCfvl3hj4L9ZotNmNF-35" target="7AeCfvl3hj4L9ZotNmNF-41">
          <mxGeometry relative="1" as="geometry" />
        </mxCell>
        <mxCell id="7AeCfvl3hj4L9ZotNmNF-35" value="" style="ellipse;whiteSpace=wrap;html=1;aspect=fixed;fillColor=#E6D0DE;" vertex="1" parent="1">
          <mxGeometry x="550" y="248" width="21" height="21" as="geometry" />
        </mxCell>
        <mxCell id="7AeCfvl3hj4L9ZotNmNF-36" style="edgeStyle=none;rounded=0;orthogonalLoop=1;jettySize=auto;html=1;entryX=0.5;entryY=0;entryDx=0;entryDy=0;endArrow=none;endFill=0;" edge="1" parent="1" source="7AeCfvl3hj4L9ZotNmNF-38" target="7AeCfvl3hj4L9ZotNmNF-41">
          <mxGeometry relative="1" as="geometry" />
        </mxCell>
        <mxCell id="7AeCfvl3hj4L9ZotNmNF-37" style="edgeStyle=none;rounded=0;orthogonalLoop=1;jettySize=auto;html=1;entryX=0;entryY=0;entryDx=0;entryDy=0;endArrow=none;endFill=0;" edge="1" parent="1" source="7AeCfvl3hj4L9ZotNmNF-38" target="7AeCfvl3hj4L9ZotNmNF-39">
          <mxGeometry relative="1" as="geometry" />
        </mxCell>
        <mxCell id="7AeCfvl3hj4L9ZotNmNF-38" value="" style="ellipse;whiteSpace=wrap;html=1;aspect=fixed;fillColor=#E6D0DE;" vertex="1" parent="1">
          <mxGeometry x="598" y="223" width="21" height="21" as="geometry" />
        </mxCell>
        <mxCell id="7AeCfvl3hj4L9ZotNmNF-39" value="" style="ellipse;whiteSpace=wrap;html=1;aspect=fixed;fillColor=#E6D0DE;" vertex="1" parent="1">
          <mxGeometry x="629" y="269" width="21" height="21" as="geometry" />
        </mxCell>
        <mxCell id="7AeCfvl3hj4L9ZotNmNF-40" style="edgeStyle=none;rounded=0;orthogonalLoop=1;jettySize=auto;html=1;entryX=0;entryY=1;entryDx=0;entryDy=0;endArrow=none;endFill=0;" edge="1" parent="1" source="7AeCfvl3hj4L9ZotNmNF-41" target="7AeCfvl3hj4L9ZotNmNF-39">
          <mxGeometry relative="1" as="geometry" />
        </mxCell>
        <mxCell id="7AeCfvl3hj4L9ZotNmNF-41" value="" style="ellipse;whiteSpace=wrap;html=1;aspect=fixed;fillColor=#E6D0DE;" vertex="1" parent="1">
          <mxGeometry x="577" y="292" width="21" height="21" as="geometry" />
        </mxCell>
        <mxCell id="7AeCfvl3hj4L9ZotNmNF-42" value="&lt;font&gt;&lt;b style=&quot;font-size: 15px;&quot;&gt;Platform  n&lt;/b&gt;&lt;/font&gt;" style="text;html=1;strokeColor=none;fillColor=none;align=center;verticalAlign=middle;whiteSpace=wrap;rounded=0;" vertex="1" parent="1">
          <mxGeometry x="531.5" y="320" width="131" height="20" as="geometry" />
        </mxCell>
        <mxCell id="7AeCfvl3hj4L9ZotNmNF-43" value="&lt;font&gt;&lt;b style=&quot;font-size: 15px;&quot;&gt;......&lt;/b&gt;&lt;/font&gt;" style="text;html=1;strokeColor=none;fillColor=none;align=center;verticalAlign=middle;whiteSpace=wrap;rounded=0;" vertex="1" parent="1">
          <mxGeometry x="411.5" y="259.75" width="131" height="20" as="geometry" />
        </mxCell>
        <mxCell id="7AeCfvl3hj4L9ZotNmNF-44" style="edgeStyle=none;rounded=0;orthogonalLoop=1;jettySize=auto;html=1;entryX=1;entryY=0;entryDx=0;entryDy=0;endArrow=none;endFill=0;dashed=1;exitX=0.25;exitY=1;exitDx=0;exitDy=0;" edge="1" parent="1" source="7AeCfvl3hj4L9ZotNmNF-47" target="7AeCfvl3hj4L9ZotNmNF-4">
          <mxGeometry relative="1" as="geometry">
            <mxPoint x="342.25505345081456" y="105.47804814186918" as="sourcePoint" />
          </mxGeometry>
        </mxCell>
        <mxCell id="7AeCfvl3hj4L9ZotNmNF-45" style="edgeStyle=none;rounded=0;orthogonalLoop=1;jettySize=auto;html=1;entryX=0.5;entryY=0;entryDx=0;entryDy=0;dashed=1;endArrow=none;endFill=0;exitX=0.5;exitY=1;exitDx=0;exitDy=0;" edge="1" parent="1" source="7AeCfvl3hj4L9ZotNmNF-47" target="7AeCfvl3hj4L9ZotNmNF-18">
          <mxGeometry relative="1" as="geometry">
            <mxPoint x="348.1416131685685" y="110.4484289157507" as="sourcePoint" />
          </mxGeometry>
        </mxCell>
        <mxCell id="7AeCfvl3hj4L9ZotNmNF-46" style="edgeStyle=none;rounded=0;orthogonalLoop=1;jettySize=auto;html=1;entryX=0;entryY=0;entryDx=0;entryDy=0;dashed=1;endArrow=none;endFill=0;exitX=0.75;exitY=1;exitDx=0;exitDy=0;" edge="1" parent="1" source="7AeCfvl3hj4L9ZotNmNF-47" target="7AeCfvl3hj4L9ZotNmNF-32">
          <mxGeometry relative="1" as="geometry">
            <mxPoint x="360.2083986115334" y="106.36632709814592" as="sourcePoint" />
          </mxGeometry>
        </mxCell>
        <mxCell id="7AeCfvl3hj4L9ZotNmNF-47" value="" style="shape=actor;whiteSpace=wrap;html=1;fillColor=#FFFFFF;" vertex="1" parent="1">
          <mxGeometry x="335.5" y="73" width="40" height="60" as="geometry" />
        </mxCell>
        <mxCell id="7AeCfvl3hj4L9ZotNmNF-48" style="edgeStyle=none;rounded=0;orthogonalLoop=1;jettySize=auto;html=1;entryX=0;entryY=0.5;entryDx=0;entryDy=0;dashed=1;endArrow=none;endFill=0;" edge="1" parent="1" source="7AeCfvl3hj4L9ZotNmNF-49" target="7AeCfvl3hj4L9ZotNmNF-4">
          <mxGeometry relative="1" as="geometry" />
        </mxCell>
        <mxCell id="7AeCfvl3hj4L9ZotNmNF-49" value="Profile 1" style="rounded=1;whiteSpace=wrap;html=1;fillColor=#FFFFFF;" vertex="1" parent="1">
          <mxGeometry x="-9" y="207.5" width="60" height="30" as="geometry" />
        </mxCell>
        <mxCell id="7AeCfvl3hj4L9ZotNmNF-50" style="edgeStyle=none;rounded=0;orthogonalLoop=1;jettySize=auto;html=1;entryX=0;entryY=0.5;entryDx=0;entryDy=0;dashed=1;endArrow=none;endFill=0;" edge="1" parent="1" source="7AeCfvl3hj4L9ZotNmNF-51" target="7AeCfvl3hj4L9ZotNmNF-18">
          <mxGeometry relative="1" as="geometry" />
        </mxCell>
        <mxCell id="7AeCfvl3hj4L9ZotNmNF-51" value="Profile 2" style="rounded=1;whiteSpace=wrap;html=1;fillColor=#FFFFFF;" vertex="1" parent="1">
          <mxGeometry x="215" y="207.5" width="60" height="30" as="geometry" />
        </mxCell>
        <mxCell id="7AeCfvl3hj4L9ZotNmNF-52" style="edgeStyle=none;rounded=0;orthogonalLoop=1;jettySize=auto;html=1;entryX=0;entryY=0.5;entryDx=0;entryDy=0;dashed=1;endArrow=none;endFill=0;" edge="1" parent="1" source="7AeCfvl3hj4L9ZotNmNF-53" target="7AeCfvl3hj4L9ZotNmNF-32">
          <mxGeometry relative="1" as="geometry" />
        </mxCell>
        <mxCell id="7AeCfvl3hj4L9ZotNmNF-53" value="Profile n" style="rounded=1;whiteSpace=wrap;html=1;fillColor=#FFFFFF;" vertex="1" parent="1">
          <mxGeometry x="447" y="207.5" width="60" height="30" as="geometry" />
        </mxCell>
        <mxCell id="7AeCfvl3hj4L9ZotNmNF-54" style="edgeStyle=orthogonalEdgeStyle;rounded=0;orthogonalLoop=1;jettySize=auto;html=1;entryX=0.5;entryY=1;entryDx=0;entryDy=0;" edge="1" parent="1" source="7AeCfvl3hj4L9ZotNmNF-55" target="7AeCfvl3hj4L9ZotNmNF-1">
          <mxGeometry relative="1" as="geometry" />
        </mxCell>
        <mxCell id="7AeCfvl3hj4L9ZotNmNF-55" value="&lt;font style=&quot;font-size: 20px;&quot;&gt;&lt;b&gt;企业&lt;/b&gt;&lt;/font&gt;" style="rounded=0;whiteSpace=wrap;html=1;" vertex="1" parent="1">
          <mxGeometry x="74" y="426" width="120" height="60" as="geometry" />
        </mxCell>
        <mxCell id="7AeCfvl3hj4L9ZotNmNF-56" style="edgeStyle=orthogonalEdgeStyle;rounded=0;orthogonalLoop=1;jettySize=auto;html=1;entryX=0.5;entryY=1;entryDx=0;entryDy=0;" edge="1" parent="1" source="7AeCfvl3hj4L9ZotNmNF-57" target="7AeCfvl3hj4L9ZotNmNF-15">
          <mxGeometry relative="1" as="geometry" />
        </mxCell>
        <mxCell id="7AeCfvl3hj4L9ZotNmNF-57" value="&lt;span style=&quot;font-size: 20px;&quot;&gt;&lt;b&gt;政府部门&lt;/b&gt;&lt;/span&gt;" style="rounded=0;whiteSpace=wrap;html=1;" vertex="1" parent="1">
          <mxGeometry x="298" y="426" width="120" height="60" as="geometry" />
        </mxCell>
        <mxCell id="7AeCfvl3hj4L9ZotNmNF-58" style="edgeStyle=orthogonalEdgeStyle;rounded=0;orthogonalLoop=1;jettySize=auto;html=1;entryX=0.5;entryY=1;entryDx=0;entryDy=0;" edge="1" parent="1" source="7AeCfvl3hj4L9ZotNmNF-59" target="7AeCfvl3hj4L9ZotNmNF-29">
          <mxGeometry relative="1" as="geometry" />
        </mxCell>
        <mxCell id="7AeCfvl3hj4L9ZotNmNF-59" value="&lt;font style=&quot;font-size: 20px;&quot;&gt;&lt;b&gt;爱好者社区&lt;/b&gt;&lt;/font&gt;" style="rounded=0;whiteSpace=wrap;html=1;" vertex="1" parent="1">
          <mxGeometry x="537" y="426" width="120" height="60" as="geometry" />
        </mxCell>
        <mxCell id="7AeCfvl3hj4L9ZotNmNF-60" value="提供：&lt;br /&gt;&lt;b&gt;1️⃣ 平台服务&lt;/b&gt;&lt;br /&gt;2️⃣ &lt;b&gt;平台内实体匹配&lt;/b&gt;" style="text;html=1;strokeColor=none;fillColor=none;align=left;verticalAlign=middle;whiteSpace=wrap;rounded=0;" vertex="1" parent="1">
          <mxGeometry x="142" y="364" width="110" height="48" as="geometry" />
        </mxCell>
        <mxCell id="7AeCfvl3hj4L9ZotNmNF-61" value="提供：&lt;br /&gt;&lt;b&gt;1️⃣ 平台服务&lt;/b&gt;&lt;br /&gt;2️⃣ &lt;b&gt;平台内实体匹配&lt;/b&gt;" style="text;html=1;strokeColor=none;fillColor=none;align=left;verticalAlign=middle;whiteSpace=wrap;rounded=0;" vertex="1" parent="1">
          <mxGeometry x="361" y="364" width="110" height="48" as="geometry" />
        </mxCell>
        <mxCell id="7AeCfvl3hj4L9ZotNmNF-62" value="提供：&lt;br /&gt;&lt;b&gt;1️⃣ 平台服务&lt;/b&gt;&lt;br /&gt;2️⃣ &lt;b&gt;平台内实体匹配&lt;/b&gt;" style="text;html=1;strokeColor=none;fillColor=none;align=left;verticalAlign=middle;whiteSpace=wrap;rounded=0;" vertex="1" parent="1">
          <mxGeometry x="604" y="364" width="110" height="48" as="geometry" />
        </mxCell>
        <mxCell id="7AeCfvl3hj4L9ZotNmNF-63" value="" style="rounded=0;whiteSpace=wrap;html=1;" vertex="1" parent="1">
          <mxGeometry x="63" y="697.5" width="142" height="156.5" as="geometry" />
        </mxCell>
        <mxCell id="7AeCfvl3hj4L9ZotNmNF-64" style="rounded=0;orthogonalLoop=1;jettySize=auto;html=1;entryX=0.5;entryY=0;entryDx=0;entryDy=0;endArrow=none;endFill=0;" edge="1" parent="1" source="7AeCfvl3hj4L9ZotNmNF-66" target="7AeCfvl3hj4L9ZotNmNF-69">
          <mxGeometry relative="1" as="geometry" />
        </mxCell>
        <mxCell id="7AeCfvl3hj4L9ZotNmNF-65" style="edgeStyle=none;rounded=0;orthogonalLoop=1;jettySize=auto;html=1;entryX=0;entryY=0.5;entryDx=0;entryDy=0;endArrow=none;endFill=0;" edge="1" parent="1" source="7AeCfvl3hj4L9ZotNmNF-66" target="7AeCfvl3hj4L9ZotNmNF-73">
          <mxGeometry relative="1" as="geometry" />
        </mxCell>
        <mxCell id="7AeCfvl3hj4L9ZotNmNF-66" value="" style="ellipse;whiteSpace=wrap;html=1;aspect=fixed;fillColor=#FF0000;" vertex="1" parent="1">
          <mxGeometry x="93" y="718" width="21" height="21" as="geometry" />
        </mxCell>
        <mxCell id="7AeCfvl3hj4L9ZotNmNF-67" style="edgeStyle=none;rounded=0;orthogonalLoop=1;jettySize=auto;html=1;entryX=0;entryY=1;entryDx=0;entryDy=0;endArrow=none;endFill=0;" edge="1" parent="1" source="7AeCfvl3hj4L9ZotNmNF-69" target="7AeCfvl3hj4L9ZotNmNF-72">
          <mxGeometry relative="1" as="geometry" />
        </mxCell>
        <mxCell id="7AeCfvl3hj4L9ZotNmNF-68" style="edgeStyle=none;rounded=0;orthogonalLoop=1;jettySize=auto;html=1;entryX=0;entryY=0;entryDx=0;entryDy=0;endArrow=none;endFill=0;" edge="1" parent="1" source="7AeCfvl3hj4L9ZotNmNF-69" target="7AeCfvl3hj4L9ZotNmNF-75">
          <mxGeometry relative="1" as="geometry" />
        </mxCell>
        <mxCell id="7AeCfvl3hj4L9ZotNmNF-69" value="" style="ellipse;whiteSpace=wrap;html=1;aspect=fixed;fillColor=#E6D0DE;" vertex="1" parent="1">
          <mxGeometry x="87" y="754" width="21" height="21" as="geometry" />
        </mxCell>
        <mxCell id="7AeCfvl3hj4L9ZotNmNF-70" style="edgeStyle=none;rounded=0;orthogonalLoop=1;jettySize=auto;html=1;entryX=0.5;entryY=0;entryDx=0;entryDy=0;endArrow=none;endFill=0;" edge="1" parent="1" source="7AeCfvl3hj4L9ZotNmNF-72" target="7AeCfvl3hj4L9ZotNmNF-75">
          <mxGeometry relative="1" as="geometry" />
        </mxCell>
        <mxCell id="7AeCfvl3hj4L9ZotNmNF-71" style="edgeStyle=none;rounded=0;orthogonalLoop=1;jettySize=auto;html=1;entryX=0;entryY=0;entryDx=0;entryDy=0;endArrow=none;endFill=0;" edge="1" parent="1" source="7AeCfvl3hj4L9ZotNmNF-72" target="7AeCfvl3hj4L9ZotNmNF-73">
          <mxGeometry relative="1" as="geometry" />
        </mxCell>
        <mxCell id="7AeCfvl3hj4L9ZotNmNF-72" value="" style="ellipse;whiteSpace=wrap;html=1;aspect=fixed;fillColor=#3333FF;" vertex="1" parent="1">
          <mxGeometry x="135" y="729" width="21" height="21" as="geometry" />
        </mxCell>
        <mxCell id="7AeCfvl3hj4L9ZotNmNF-73" value="" style="ellipse;whiteSpace=wrap;html=1;aspect=fixed;fillColor=#E6D0DE;" vertex="1" parent="1">
          <mxGeometry x="166" y="775" width="21" height="21" as="geometry" />
        </mxCell>
        <mxCell id="7AeCfvl3hj4L9ZotNmNF-74" style="edgeStyle=none;rounded=0;orthogonalLoop=1;jettySize=auto;html=1;entryX=0;entryY=1;entryDx=0;entryDy=0;endArrow=none;endFill=0;" edge="1" parent="1" source="7AeCfvl3hj4L9ZotNmNF-75" target="7AeCfvl3hj4L9ZotNmNF-73">
          <mxGeometry relative="1" as="geometry" />
        </mxCell>
        <mxCell id="7AeCfvl3hj4L9ZotNmNF-75" value="" style="ellipse;whiteSpace=wrap;html=1;aspect=fixed;fillColor=#E6D0DE;" vertex="1" parent="1">
          <mxGeometry x="114" y="798" width="21" height="21" as="geometry" />
        </mxCell>
        <mxCell id="7AeCfvl3hj4L9ZotNmNF-76" value="&lt;font&gt;&lt;b style=&quot;font-size: 15px;&quot;&gt;Platform  1&lt;/b&gt;&lt;/font&gt;" style="text;html=1;strokeColor=none;fillColor=none;align=center;verticalAlign=middle;whiteSpace=wrap;rounded=0;" vertex="1" parent="1">
          <mxGeometry x="68.5" y="826" width="131" height="20" as="geometry" />
        </mxCell>
        <mxCell id="7AeCfvl3hj4L9ZotNmNF-77" value="" style="rounded=0;whiteSpace=wrap;html=1;" vertex="1" parent="1">
          <mxGeometry x="287" y="697.5" width="142" height="156.5" as="geometry" />
        </mxCell>
        <mxCell id="7AeCfvl3hj4L9ZotNmNF-78" style="rounded=0;orthogonalLoop=1;jettySize=auto;html=1;entryX=0.5;entryY=0;entryDx=0;entryDy=0;endArrow=none;endFill=0;" edge="1" parent="1" source="7AeCfvl3hj4L9ZotNmNF-80" target="7AeCfvl3hj4L9ZotNmNF-83">
          <mxGeometry relative="1" as="geometry" />
        </mxCell>
        <mxCell id="7AeCfvl3hj4L9ZotNmNF-79" style="edgeStyle=none;rounded=0;orthogonalLoop=1;jettySize=auto;html=1;entryX=0;entryY=0.5;entryDx=0;entryDy=0;endArrow=none;endFill=0;" edge="1" parent="1" source="7AeCfvl3hj4L9ZotNmNF-80" target="7AeCfvl3hj4L9ZotNmNF-87">
          <mxGeometry relative="1" as="geometry" />
        </mxCell>
        <mxCell id="7AeCfvl3hj4L9ZotNmNF-80" value="" style="ellipse;whiteSpace=wrap;html=1;aspect=fixed;fillColor=#FF0000;" vertex="1" parent="1">
          <mxGeometry x="317" y="718" width="21" height="21" as="geometry" />
        </mxCell>
        <mxCell id="7AeCfvl3hj4L9ZotNmNF-81" style="edgeStyle=none;rounded=0;orthogonalLoop=1;jettySize=auto;html=1;entryX=0;entryY=1;entryDx=0;entryDy=0;endArrow=none;endFill=0;" edge="1" parent="1" source="7AeCfvl3hj4L9ZotNmNF-83" target="7AeCfvl3hj4L9ZotNmNF-86">
          <mxGeometry relative="1" as="geometry" />
        </mxCell>
        <mxCell id="7AeCfvl3hj4L9ZotNmNF-82" style="edgeStyle=none;rounded=0;orthogonalLoop=1;jettySize=auto;html=1;entryX=0;entryY=0;entryDx=0;entryDy=0;endArrow=none;endFill=0;" edge="1" parent="1" source="7AeCfvl3hj4L9ZotNmNF-83" target="7AeCfvl3hj4L9ZotNmNF-89">
          <mxGeometry relative="1" as="geometry" />
        </mxCell>
        <mxCell id="7AeCfvl3hj4L9ZotNmNF-83" value="" style="ellipse;whiteSpace=wrap;html=1;aspect=fixed;fillColor=#E6D0DE;" vertex="1" parent="1">
          <mxGeometry x="311" y="754" width="21" height="21" as="geometry" />
        </mxCell>
        <mxCell id="7AeCfvl3hj4L9ZotNmNF-84" style="edgeStyle=none;rounded=0;orthogonalLoop=1;jettySize=auto;html=1;entryX=0.5;entryY=0;entryDx=0;entryDy=0;endArrow=none;endFill=0;" edge="1" parent="1" source="7AeCfvl3hj4L9ZotNmNF-86" target="7AeCfvl3hj4L9ZotNmNF-89">
          <mxGeometry relative="1" as="geometry" />
        </mxCell>
        <mxCell id="7AeCfvl3hj4L9ZotNmNF-85" style="edgeStyle=none;rounded=0;orthogonalLoop=1;jettySize=auto;html=1;entryX=0;entryY=0;entryDx=0;entryDy=0;endArrow=none;endFill=0;" edge="1" parent="1" source="7AeCfvl3hj4L9ZotNmNF-86" target="7AeCfvl3hj4L9ZotNmNF-87">
          <mxGeometry relative="1" as="geometry" />
        </mxCell>
        <mxCell id="7AeCfvl3hj4L9ZotNmNF-86" value="" style="ellipse;whiteSpace=wrap;html=1;aspect=fixed;fillColor=#3333FF;" vertex="1" parent="1">
          <mxGeometry x="359" y="729" width="21" height="21" as="geometry" />
        </mxCell>
        <mxCell id="7AeCfvl3hj4L9ZotNmNF-87" value="" style="ellipse;whiteSpace=wrap;html=1;aspect=fixed;fillColor=#E6D0DE;" vertex="1" parent="1">
          <mxGeometry x="390" y="775" width="21" height="21" as="geometry" />
        </mxCell>
        <mxCell id="7AeCfvl3hj4L9ZotNmNF-88" style="edgeStyle=none;rounded=0;orthogonalLoop=1;jettySize=auto;html=1;entryX=0;entryY=1;entryDx=0;entryDy=0;endArrow=none;endFill=0;" edge="1" parent="1" source="7AeCfvl3hj4L9ZotNmNF-89" target="7AeCfvl3hj4L9ZotNmNF-87">
          <mxGeometry relative="1" as="geometry" />
        </mxCell>
        <mxCell id="7AeCfvl3hj4L9ZotNmNF-89" value="" style="ellipse;whiteSpace=wrap;html=1;aspect=fixed;fillColor=#E6D0DE;" vertex="1" parent="1">
          <mxGeometry x="338" y="798" width="21" height="21" as="geometry" />
        </mxCell>
        <mxCell id="7AeCfvl3hj4L9ZotNmNF-90" value="&lt;font&gt;&lt;b style=&quot;font-size: 15px;&quot;&gt;Platform  2&lt;/b&gt;&lt;/font&gt;" style="text;html=1;strokeColor=none;fillColor=none;align=center;verticalAlign=middle;whiteSpace=wrap;rounded=0;" vertex="1" parent="1">
          <mxGeometry x="292.5" y="826" width="131" height="20" as="geometry" />
        </mxCell>
        <mxCell id="7AeCfvl3hj4L9ZotNmNF-91" value="" style="rounded=0;whiteSpace=wrap;html=1;" vertex="1" parent="1">
          <mxGeometry x="526" y="697.5" width="142" height="156.5" as="geometry" />
        </mxCell>
        <mxCell id="7AeCfvl3hj4L9ZotNmNF-92" style="rounded=0;orthogonalLoop=1;jettySize=auto;html=1;entryX=0.5;entryY=0;entryDx=0;entryDy=0;endArrow=none;endFill=0;" edge="1" parent="1" source="7AeCfvl3hj4L9ZotNmNF-94" target="7AeCfvl3hj4L9ZotNmNF-97">
          <mxGeometry relative="1" as="geometry" />
        </mxCell>
        <mxCell id="7AeCfvl3hj4L9ZotNmNF-93" style="edgeStyle=none;rounded=0;orthogonalLoop=1;jettySize=auto;html=1;entryX=0;entryY=0.5;entryDx=0;entryDy=0;endArrow=none;endFill=0;" edge="1" parent="1" source="7AeCfvl3hj4L9ZotNmNF-94" target="7AeCfvl3hj4L9ZotNmNF-101">
          <mxGeometry relative="1" as="geometry" />
        </mxCell>
        <mxCell id="7AeCfvl3hj4L9ZotNmNF-94" value="" style="ellipse;whiteSpace=wrap;html=1;aspect=fixed;fillColor=#FF0000;" vertex="1" parent="1">
          <mxGeometry x="556" y="718" width="21" height="21" as="geometry" />
        </mxCell>
        <mxCell id="7AeCfvl3hj4L9ZotNmNF-95" style="edgeStyle=none;rounded=0;orthogonalLoop=1;jettySize=auto;html=1;entryX=0;entryY=1;entryDx=0;entryDy=0;endArrow=none;endFill=0;" edge="1" parent="1" source="7AeCfvl3hj4L9ZotNmNF-97" target="7AeCfvl3hj4L9ZotNmNF-100">
          <mxGeometry relative="1" as="geometry" />
        </mxCell>
        <mxCell id="7AeCfvl3hj4L9ZotNmNF-96" style="edgeStyle=none;rounded=0;orthogonalLoop=1;jettySize=auto;html=1;entryX=0;entryY=0;entryDx=0;entryDy=0;endArrow=none;endFill=0;" edge="1" parent="1" source="7AeCfvl3hj4L9ZotNmNF-97" target="7AeCfvl3hj4L9ZotNmNF-103">
          <mxGeometry relative="1" as="geometry" />
        </mxCell>
        <mxCell id="7AeCfvl3hj4L9ZotNmNF-97" value="" style="ellipse;whiteSpace=wrap;html=1;aspect=fixed;fillColor=#E6D0DE;" vertex="1" parent="1">
          <mxGeometry x="550" y="754" width="21" height="21" as="geometry" />
        </mxCell>
        <mxCell id="7AeCfvl3hj4L9ZotNmNF-98" style="edgeStyle=none;rounded=0;orthogonalLoop=1;jettySize=auto;html=1;entryX=0.5;entryY=0;entryDx=0;entryDy=0;endArrow=none;endFill=0;" edge="1" parent="1" source="7AeCfvl3hj4L9ZotNmNF-100" target="7AeCfvl3hj4L9ZotNmNF-103">
          <mxGeometry relative="1" as="geometry" />
        </mxCell>
        <mxCell id="7AeCfvl3hj4L9ZotNmNF-99" style="edgeStyle=none;rounded=0;orthogonalLoop=1;jettySize=auto;html=1;entryX=0;entryY=0;entryDx=0;entryDy=0;endArrow=none;endFill=0;" edge="1" parent="1" source="7AeCfvl3hj4L9ZotNmNF-100" target="7AeCfvl3hj4L9ZotNmNF-101">
          <mxGeometry relative="1" as="geometry" />
        </mxCell>
        <mxCell id="7AeCfvl3hj4L9ZotNmNF-100" value="" style="ellipse;whiteSpace=wrap;html=1;aspect=fixed;fillColor=#3333FF;" vertex="1" parent="1">
          <mxGeometry x="598" y="729" width="21" height="21" as="geometry" />
        </mxCell>
        <mxCell id="7AeCfvl3hj4L9ZotNmNF-101" value="" style="ellipse;whiteSpace=wrap;html=1;aspect=fixed;fillColor=#E6D0DE;" vertex="1" parent="1">
          <mxGeometry x="629" y="775" width="21" height="21" as="geometry" />
        </mxCell>
        <mxCell id="7AeCfvl3hj4L9ZotNmNF-102" style="edgeStyle=none;rounded=0;orthogonalLoop=1;jettySize=auto;html=1;entryX=0;entryY=1;entryDx=0;entryDy=0;endArrow=none;endFill=0;" edge="1" parent="1" source="7AeCfvl3hj4L9ZotNmNF-103" target="7AeCfvl3hj4L9ZotNmNF-101">
          <mxGeometry relative="1" as="geometry" />
        </mxCell>
        <mxCell id="7AeCfvl3hj4L9ZotNmNF-103" value="" style="ellipse;whiteSpace=wrap;html=1;aspect=fixed;fillColor=#E6D0DE;" vertex="1" parent="1">
          <mxGeometry x="577" y="798" width="21" height="21" as="geometry" />
        </mxCell>
        <mxCell id="7AeCfvl3hj4L9ZotNmNF-104" value="&lt;font&gt;&lt;b style=&quot;font-size: 15px;&quot;&gt;Platform  n&lt;/b&gt;&lt;/font&gt;" style="text;html=1;strokeColor=none;fillColor=none;align=center;verticalAlign=middle;whiteSpace=wrap;rounded=0;" vertex="1" parent="1">
          <mxGeometry x="531.5" y="826" width="131" height="20" as="geometry" />
        </mxCell>
        <mxCell id="7AeCfvl3hj4L9ZotNmNF-105" value="&lt;font&gt;&lt;b style=&quot;font-size: 15px;&quot;&gt;......&lt;/b&gt;&lt;/font&gt;" style="text;html=1;strokeColor=none;fillColor=none;align=center;verticalAlign=middle;whiteSpace=wrap;rounded=0;" vertex="1" parent="1">
          <mxGeometry x="411.5" y="765.75" width="131" height="20" as="geometry" />
        </mxCell>
        <mxCell id="7AeCfvl3hj4L9ZotNmNF-106" style="rounded=0;orthogonalLoop=1;jettySize=auto;html=1;entryX=0.5;entryY=0;entryDx=0;entryDy=0;endArrow=none;endFill=0;exitX=0.25;exitY=1;exitDx=0;exitDy=0;dashed=1;strokeColor=#FF0000;" edge="1" parent="1" source="7AeCfvl3hj4L9ZotNmNF-109" target="7AeCfvl3hj4L9ZotNmNF-66">
          <mxGeometry relative="1" as="geometry" />
        </mxCell>
        <mxCell id="7AeCfvl3hj4L9ZotNmNF-107" style="edgeStyle=none;rounded=0;orthogonalLoop=1;jettySize=auto;html=1;entryX=0.5;entryY=0;entryDx=0;entryDy=0;dashed=1;endArrow=none;endFill=0;exitX=0.5;exitY=1;exitDx=0;exitDy=0;strokeColor=#FF0000;" edge="1" parent="1" source="7AeCfvl3hj4L9ZotNmNF-109" target="7AeCfvl3hj4L9ZotNmNF-80">
          <mxGeometry relative="1" as="geometry" />
        </mxCell>
        <mxCell id="7AeCfvl3hj4L9ZotNmNF-108" style="edgeStyle=none;rounded=0;orthogonalLoop=1;jettySize=auto;html=1;entryX=0;entryY=0;entryDx=0;entryDy=0;dashed=1;endArrow=none;endFill=0;exitX=0.75;exitY=1;exitDx=0;exitDy=0;strokeColor=#FF0000;" edge="1" parent="1" source="7AeCfvl3hj4L9ZotNmNF-109" target="7AeCfvl3hj4L9ZotNmNF-94">
          <mxGeometry relative="1" as="geometry" />
        </mxCell>
        <mxCell id="7AeCfvl3hj4L9ZotNmNF-109" value="" style="shape=actor;whiteSpace=wrap;html=1;fillColor=#FF0000;" vertex="1" parent="1">
          <mxGeometry x="159.5" y="570" width="40" height="60" as="geometry" />
        </mxCell>
        <mxCell id="7AeCfvl3hj4L9ZotNmNF-110" style="edgeStyle=orthogonalEdgeStyle;rounded=0;orthogonalLoop=1;jettySize=auto;html=1;entryX=0.5;entryY=1;entryDx=0;entryDy=0;" edge="1" parent="1" source="7AeCfvl3hj4L9ZotNmNF-111" target="7AeCfvl3hj4L9ZotNmNF-63">
          <mxGeometry relative="1" as="geometry" />
        </mxCell>
        <mxCell id="7AeCfvl3hj4L9ZotNmNF-111" value="&lt;font style=&quot;font-size: 20px;&quot;&gt;&lt;b&gt;企业&lt;/b&gt;&lt;/font&gt;" style="rounded=0;whiteSpace=wrap;html=1;" vertex="1" parent="1">
          <mxGeometry x="74" y="932" width="120" height="60" as="geometry" />
        </mxCell>
        <mxCell id="7AeCfvl3hj4L9ZotNmNF-112" style="edgeStyle=orthogonalEdgeStyle;rounded=0;orthogonalLoop=1;jettySize=auto;html=1;entryX=0.5;entryY=1;entryDx=0;entryDy=0;" edge="1" parent="1" source="7AeCfvl3hj4L9ZotNmNF-113" target="7AeCfvl3hj4L9ZotNmNF-77">
          <mxGeometry relative="1" as="geometry" />
        </mxCell>
        <mxCell id="7AeCfvl3hj4L9ZotNmNF-113" value="&lt;span style=&quot;font-size: 20px;&quot;&gt;&lt;b&gt;政府部门&lt;/b&gt;&lt;/span&gt;" style="rounded=0;whiteSpace=wrap;html=1;" vertex="1" parent="1">
          <mxGeometry x="298" y="932" width="120" height="60" as="geometry" />
        </mxCell>
        <mxCell id="7AeCfvl3hj4L9ZotNmNF-114" style="edgeStyle=orthogonalEdgeStyle;rounded=0;orthogonalLoop=1;jettySize=auto;html=1;entryX=0.5;entryY=1;entryDx=0;entryDy=0;" edge="1" parent="1" source="7AeCfvl3hj4L9ZotNmNF-115" target="7AeCfvl3hj4L9ZotNmNF-91">
          <mxGeometry relative="1" as="geometry" />
        </mxCell>
        <mxCell id="7AeCfvl3hj4L9ZotNmNF-115" value="&lt;font style=&quot;font-size: 20px;&quot;&gt;&lt;b&gt;爱好者社区&lt;/b&gt;&lt;/font&gt;" style="rounded=0;whiteSpace=wrap;html=1;" vertex="1" parent="1">
          <mxGeometry x="537" y="932" width="120" height="60" as="geometry" />
        </mxCell>
        <mxCell id="7AeCfvl3hj4L9ZotNmNF-116" style="edgeStyle=orthogonalEdgeStyle;rounded=0;orthogonalLoop=1;jettySize=auto;html=1;entryX=0;entryY=0.75;entryDx=0;entryDy=0;endArrow=none;endFill=0;dashed=1;" edge="1" parent="1" source="7AeCfvl3hj4L9ZotNmNF-117" target="7AeCfvl3hj4L9ZotNmNF-109">
          <mxGeometry relative="1" as="geometry" />
        </mxCell>
        <mxCell id="7AeCfvl3hj4L9ZotNmNF-117" value="Profile" style="rounded=1;whiteSpace=wrap;html=1;fillColor=#FFFFFF;" vertex="1" parent="1">
          <mxGeometry x="76.5" y="600" width="60" height="30" as="geometry" />
        </mxCell>
        <mxCell id="7AeCfvl3hj4L9ZotNmNF-118" style="edgeStyle=none;rounded=0;orthogonalLoop=1;jettySize=auto;html=1;entryX=1;entryY=0;entryDx=0;entryDy=0;dashed=1;endArrow=none;endFill=0;strokeColor=#3333FF;exitX=0.25;exitY=1;exitDx=0;exitDy=0;" edge="1" parent="1" source="7AeCfvl3hj4L9ZotNmNF-121" target="7AeCfvl3hj4L9ZotNmNF-72">
          <mxGeometry relative="1" as="geometry" />
        </mxCell>
        <mxCell id="7AeCfvl3hj4L9ZotNmNF-119" style="edgeStyle=none;rounded=0;orthogonalLoop=1;jettySize=auto;html=1;entryX=0.5;entryY=0;entryDx=0;entryDy=0;dashed=1;endArrow=none;endFill=0;strokeColor=#3333FF;exitX=0.5;exitY=1;exitDx=0;exitDy=0;" edge="1" parent="1" source="7AeCfvl3hj4L9ZotNmNF-121" target="7AeCfvl3hj4L9ZotNmNF-86">
          <mxGeometry relative="1" as="geometry" />
        </mxCell>
        <mxCell id="7AeCfvl3hj4L9ZotNmNF-120" style="edgeStyle=none;rounded=0;orthogonalLoop=1;jettySize=auto;html=1;entryX=0;entryY=0;entryDx=0;entryDy=0;dashed=1;endArrow=none;endFill=0;strokeColor=#3333FF;exitX=0.75;exitY=1;exitDx=0;exitDy=0;" edge="1" parent="1" source="7AeCfvl3hj4L9ZotNmNF-121" target="7AeCfvl3hj4L9ZotNmNF-100">
          <mxGeometry relative="1" as="geometry" />
        </mxCell>
        <mxCell id="7AeCfvl3hj4L9ZotNmNF-121" value="" style="shape=actor;whiteSpace=wrap;html=1;fillColor=#3333FF;" vertex="1" parent="1">
          <mxGeometry x="499" y="570" width="40" height="60" as="geometry" />
        </mxCell>
        <mxCell id="7AeCfvl3hj4L9ZotNmNF-122" style="edgeStyle=none;rounded=0;orthogonalLoop=1;jettySize=auto;html=1;dashed=1;endArrow=none;endFill=0;strokeColor=#000000;" edge="1" parent="1" source="7AeCfvl3hj4L9ZotNmNF-123">
          <mxGeometry relative="1" as="geometry">
            <mxPoint x="540" y="615" as="targetPoint" />
          </mxGeometry>
        </mxCell>
        <mxCell id="7AeCfvl3hj4L9ZotNmNF-123" value="Profile" style="rounded=1;whiteSpace=wrap;html=1;fillColor=#FFFFFF;" vertex="1" parent="1">
          <mxGeometry x="569" y="600" width="60" height="30" as="geometry" />
        </mxCell>
        <mxCell id="7AeCfvl3hj4L9ZotNmNF-124" value="" style="shape=flexArrow;endArrow=classic;startArrow=classic;html=1;strokeColor=#000000;" edge="1" parent="1">
          <mxGeometry width="50" height="50" relative="1" as="geometry">
            <mxPoint x="208" y="604" as="sourcePoint" />
            <mxPoint x="488" y="604" as="targetPoint" />
          </mxGeometry>
        </mxCell>
        <mxCell id="7AeCfvl3hj4L9ZotNmNF-125" value="&lt;font style=&quot;font-size: 20px;&quot;&gt;&lt;b&gt;Communication&lt;/b&gt;&lt;/font&gt;" style="text;html=1;strokeColor=none;fillColor=none;align=center;verticalAlign=middle;whiteSpace=wrap;rounded=0;" vertex="1" parent="1">
          <mxGeometry x="265.25" y="572" width="166.5" height="20" as="geometry" />
        </mxCell>
        <mxCell id="7AeCfvl3hj4L9ZotNmNF-126" value="提供：&lt;br /&gt;&lt;b&gt;1️⃣ 平台服务&lt;/b&gt;&lt;br /&gt;2️⃣ &lt;b&gt;平台内实体匹配&lt;/b&gt;" style="text;html=1;strokeColor=none;fillColor=none;align=left;verticalAlign=middle;whiteSpace=wrap;rounded=0;" vertex="1" parent="1">
          <mxGeometry x="142" y="870" width="110" height="48" as="geometry" />
        </mxCell>
        <mxCell id="7AeCfvl3hj4L9ZotNmNF-127" value="提供：&lt;br /&gt;&lt;b&gt;1️⃣ 平台服务&lt;/b&gt;&lt;br /&gt;2️⃣ &lt;b&gt;平台内实体匹配&lt;/b&gt;" style="text;html=1;strokeColor=none;fillColor=none;align=left;verticalAlign=middle;whiteSpace=wrap;rounded=0;" vertex="1" parent="1">
          <mxGeometry x="365" y="870" width="110" height="48" as="geometry" />
        </mxCell>
        <mxCell id="7AeCfvl3hj4L9ZotNmNF-128" value="提供：&lt;br /&gt;&lt;b&gt;1️⃣ 平台服务&lt;/b&gt;&lt;br /&gt;2️⃣ &lt;b&gt;平台内实体匹配&lt;/b&gt;" style="text;html=1;strokeColor=none;fillColor=none;align=left;verticalAlign=middle;whiteSpace=wrap;rounded=0;" vertex="1" parent="1">
          <mxGeometry x="605" y="870" width="110" height="48" as="geometry" />
        </mxCell>
      </root>
    </mxGraphModel>
  </diagram>
</mxfile>
